<svg width="49" height="29" viewBox="0 0 49 29" fill="none" xmlns="http://www.w3.org/2000/svg">
<path d="M45.868 13.5467C45.7141 13.5144 45.5689 13.484 45.4397 13.4504C43.9755 13.0696 43.3073 12.8609 42.8132 11.9069L40.9415 8.11764C40.34 6.95642 38.7868 6.01164 37.4791 6.01164H34.147V1.63596C34.147 0.850307 33.5077 0.21106 32.7219 0.21106L9.51339 0.234366C8.74871 0.234366 8.17207 0.842043 8.17207 1.64794V2.94126H2.22667C0.998917 2.94137 0 3.94018 0 5.16803C0 6.39589 0.998917 7.3947 2.22667 7.3947H8.17196V9.52888H4.27938C3.05163 9.52888 2.05271 10.5278 2.05271 11.7555C2.05271 12.9833 3.05163 13.9822 4.27938 13.9822H8.17196V16.1164H6.33209C5.10434 16.1164 4.10542 17.1153 4.10542 18.3431C4.10542 19.5708 5.10434 20.5697 6.33209 20.5697H8.17196V22.8019C8.17196 23.5876 8.81121 24.2268 9.59687 24.2268H12.0111C12.387 26.8036 14.6111 28.789 17.2908 28.789C19.9708 28.789 22.1949 26.8036 22.571 24.2268H32.3413C32.3921 24.2268 32.4441 24.2234 32.496 24.22C32.8691 26.8001 35.0945 28.789 37.7766 28.789C40.4566 28.789 42.6807 26.8036 43.0568 24.2268H46.5245C47.8895 24.2268 49.0001 23.1163 49.0001 21.7514V17.551C49 14.2038 47.1151 13.8084 45.868 13.5467ZM37.7766 21.5132C38.8466 21.5132 39.7171 22.3834 39.7171 23.4531C39.7171 24.5228 38.8466 25.393 37.7766 25.393C36.707 25.393 35.8368 24.5228 35.8368 23.4531C35.8368 22.3834 36.707 21.5132 37.7766 21.5132ZM34.147 13.245V8.07823H36.6934C37.6721 8.07823 38.8794 8.81261 39.3275 9.6773L40.993 13.0493C41.0283 13.1175 41.0649 13.1826 41.103 13.2449H34.147V13.245ZM19.2313 23.453C19.2313 24.5226 18.3608 25.3929 17.2908 25.3929C16.2212 25.3929 15.3512 24.5227 15.3512 23.453C15.3512 22.3833 16.2212 21.5131 17.2908 21.5131C18.3608 21.5132 19.2313 22.3834 19.2313 23.453Z" fill="url(#paint0_linear)"/>
<defs>
<linearGradient id="paint0_linear" x1="13.6111" y1="-10.5056" x2="55.465" y2="-0.288282" gradientUnits="userSpaceOnUse">
<stop stop-color="#8DB246"/>
<stop offset="1" stop-color="#AED066"/>
</linearGradient>
</defs>
</svg>
