<svg width="773" height="733" viewBox="0 0 773 733" fill="none" xmlns="http://www.w3.org/2000/svg" xmlns:xlink="http://www.w3.org/1999/xlink">
<g opacity="0.3" filter="url(#filter0_ddii)">
<path d="M252.848 149C197.714 208.152 164 287.403 164 374.5C164 461.597 197.714 540.848 252.848 600" stroke="#636569"/>
</g>
<g filter="url(#filter1_dii)">
<ellipse cx="491.5" cy="384.574" rx="262.5" ry="261.574" fill="#F1F1F1"/>
</g>
<g filter="url(#filter2_ii)">
<rect x="284" y="178.802" width="416" height="411.543" fill="url(#pattern0)"/>
</g>
<circle opacity="0.15" cx="193.5" cy="238.5" r="5.5" fill="#636569"/>
<circle cx="193.5" cy="238.5" r="1.1" fill="#AFAFAF"/>
<g filter="url(#filter3_d)">
<rect x="61" y="220" width="42" height="38.0377" fill="url(#pattern1)"/>
</g>
<path d="M115.72 237.7C116.213 237.7 116.66 237.813 117.06 238.04C117.46 238.26 117.773 238.573 118 238.98C118.227 239.387 118.34 239.85 118.34 240.37C118.34 240.897 118.227 241.363 118 241.77C117.773 242.177 117.46 242.493 117.06 242.72C116.667 242.94 116.22 243.05 115.72 243.05C115.293 243.05 114.907 242.963 114.56 242.79C114.22 242.61 113.94 242.35 113.72 242.01V244.94H113.01V237.74H113.69V238.78C113.903 238.433 114.183 238.167 114.53 237.98C114.883 237.793 115.28 237.7 115.72 237.7ZM115.67 242.42C116.037 242.42 116.37 242.337 116.67 242.17C116.97 241.997 117.203 241.753 117.37 241.44C117.543 241.127 117.63 240.77 117.63 240.37C117.63 239.97 117.543 239.617 117.37 239.31C117.203 238.997 116.97 238.753 116.67 238.58C116.37 238.407 116.037 238.32 115.67 238.32C115.297 238.32 114.96 238.407 114.66 238.58C114.367 238.753 114.133 238.997 113.96 239.31C113.793 239.617 113.71 239.97 113.71 240.37C113.71 240.77 113.793 241.127 113.96 241.44C114.133 241.753 114.367 241.997 114.66 242.17C114.96 242.337 115.297 242.42 115.67 242.42ZM122.075 239.6C122.735 239.607 123.239 239.753 123.585 240.04C123.932 240.327 124.105 240.74 124.105 241.28C124.105 241.84 123.919 242.27 123.545 242.57C123.172 242.87 122.639 243.017 121.945 243.01L119.865 243V237.74H120.575V239.58L122.075 239.6ZM124.985 237.74H125.695V243H124.985V237.74ZM121.905 242.47C122.392 242.477 122.759 242.38 123.005 242.18C123.259 241.973 123.385 241.673 123.385 241.28C123.385 240.893 123.262 240.607 123.015 240.42C122.769 240.233 122.399 240.137 121.905 240.13L120.575 240.11V242.45L121.905 242.47ZM130.267 237.87C130.754 237.87 131.187 237.98 131.567 238.2C131.954 238.413 132.254 238.717 132.467 239.11C132.68 239.497 132.787 239.94 132.787 240.44C132.787 240.953 132.674 241.41 132.447 241.81C132.227 242.203 131.917 242.51 131.517 242.73C131.117 242.95 130.657 243.06 130.137 243.06C129.264 243.06 128.587 242.753 128.107 242.14C127.627 241.527 127.387 240.68 127.387 239.6C127.387 238.473 127.6 237.61 128.027 237.01C128.46 236.41 129.134 236.003 130.047 235.79L132.407 235.25L132.527 235.9L130.307 236.41C129.554 236.577 129 236.873 128.647 237.3C128.294 237.72 128.1 238.343 128.067 239.17C128.28 238.763 128.577 238.447 128.957 238.22C129.337 237.987 129.774 237.87 130.267 237.87ZM130.157 242.47C130.524 242.47 130.85 242.387 131.137 242.22C131.43 242.047 131.657 241.807 131.817 241.5C131.984 241.193 132.067 240.847 132.067 240.46C132.067 240.073 131.987 239.733 131.827 239.44C131.667 239.147 131.44 238.92 131.147 238.76C130.86 238.593 130.53 238.51 130.157 238.51C129.784 238.51 129.45 238.593 129.157 238.76C128.87 238.92 128.644 239.147 128.477 239.44C128.317 239.733 128.237 240.073 128.237 240.46C128.237 240.847 128.317 241.193 128.477 241.5C128.644 241.807 128.874 242.047 129.167 242.22C129.46 242.387 129.79 242.47 130.157 242.47ZM136.09 237.7C136.776 237.7 137.303 237.873 137.67 238.22C138.036 238.56 138.22 239.067 138.22 239.74V243H137.54V242.18C137.38 242.453 137.143 242.667 136.83 242.82C136.523 242.973 136.156 243.05 135.73 243.05C135.143 243.05 134.676 242.91 134.33 242.63C133.983 242.35 133.81 241.98 133.81 241.52C133.81 241.073 133.97 240.713 134.29 240.44C134.616 240.167 135.133 240.03 135.84 240.03H137.51V239.71C137.51 239.257 137.383 238.913 137.13 238.68C136.876 238.44 136.506 238.32 136.02 238.32C135.686 238.32 135.366 238.377 135.06 238.49C134.753 238.597 134.49 238.747 134.27 238.94L133.95 238.41C134.216 238.183 134.536 238.01 134.91 237.89C135.283 237.763 135.676 237.7 136.09 237.7ZM135.84 242.49C136.24 242.49 136.583 242.4 136.87 242.22C137.156 242.033 137.37 241.767 137.51 241.42V240.56H135.86C134.96 240.56 134.51 240.873 134.51 241.5C134.51 241.807 134.626 242.05 134.86 242.23C135.093 242.403 135.42 242.49 135.84 242.49ZM140.17 241.96C140.323 241.96 140.45 242.013 140.55 242.12C140.65 242.22 140.7 242.347 140.7 242.5C140.7 242.58 140.686 242.667 140.66 242.76C140.64 242.853 140.606 242.96 140.56 243.08L140.14 244.46H139.66L140 243.01C139.893 242.977 139.806 242.917 139.74 242.83C139.673 242.737 139.64 242.627 139.64 242.5C139.64 242.347 139.69 242.22 139.79 242.12C139.89 242.013 140.016 241.96 140.17 241.96ZM150.306 241.16H148.906V243H148.186V241.16H144.236V240.64L147.946 236H148.746L145.166 240.52H148.206V238.9H148.906V240.52H150.306V241.16ZM153.757 243.06C153.217 243.06 152.734 242.917 152.307 242.63C151.887 242.343 151.557 241.933 151.317 241.4C151.084 240.86 150.967 240.227 150.967 239.5C150.967 238.773 151.084 238.143 151.317 237.61C151.557 237.07 151.887 236.657 152.307 236.37C152.734 236.083 153.217 235.94 153.757 235.94C154.297 235.94 154.777 236.083 155.197 236.37C155.624 236.657 155.957 237.07 156.197 237.61C156.437 238.143 156.557 238.773 156.557 239.5C156.557 240.227 156.437 240.86 156.197 241.4C155.957 241.933 155.624 242.343 155.197 242.63C154.777 242.917 154.297 243.06 153.757 243.06ZM153.757 242.4C154.164 242.4 154.521 242.287 154.827 242.06C155.141 241.833 155.384 241.503 155.557 241.07C155.731 240.637 155.817 240.113 155.817 239.5C155.817 238.887 155.731 238.363 155.557 237.93C155.384 237.497 155.141 237.167 154.827 236.94C154.521 236.713 154.164 236.6 153.757 236.6C153.351 236.6 152.991 236.713 152.677 236.94C152.371 237.167 152.131 237.497 151.957 237.93C151.784 238.363 151.697 238.887 151.697 239.5C151.697 240.113 151.784 240.637 151.957 241.07C152.131 241.503 152.371 241.833 152.677 242.06C152.991 242.287 153.351 242.4 153.757 242.4ZM160.378 243.06C159.838 243.06 159.355 242.917 158.928 242.63C158.508 242.343 158.178 241.933 157.938 241.4C157.705 240.86 157.588 240.227 157.588 239.5C157.588 238.773 157.705 238.143 157.938 237.61C158.178 237.07 158.508 236.657 158.928 236.37C159.355 236.083 159.838 235.94 160.378 235.94C160.918 235.94 161.398 236.083 161.818 236.37C162.245 236.657 162.578 237.07 162.818 237.61C163.058 238.143 163.178 238.773 163.178 239.5C163.178 240.227 163.058 240.86 162.818 241.4C162.578 241.933 162.245 242.343 161.818 242.63C161.398 242.917 160.918 243.06 160.378 243.06ZM160.378 242.4C160.785 242.4 161.142 242.287 161.448 242.06C161.762 241.833 162.005 241.503 162.178 241.07C162.352 240.637 162.438 240.113 162.438 239.5C162.438 238.887 162.352 238.363 162.178 237.93C162.005 237.497 161.762 237.167 161.448 236.94C161.142 236.713 160.785 236.6 160.378 236.6C159.972 236.6 159.612 236.713 159.298 236.94C158.992 237.167 158.752 237.497 158.578 237.93C158.405 238.363 158.318 238.887 158.318 239.5C158.318 240.113 158.405 240.637 158.578 241.07C158.752 241.503 158.992 241.833 159.298 242.06C159.612 242.287 159.972 242.4 160.378 242.4ZM171.037 238.37H168.027V243H167.317V237.74H171.037V238.37ZM174.773 237.7C175.266 237.7 175.713 237.813 176.113 238.04C176.513 238.26 176.826 238.573 177.053 238.98C177.279 239.387 177.393 239.85 177.393 240.37C177.393 240.897 177.279 241.363 177.053 241.77C176.826 242.177 176.513 242.493 176.113 242.72C175.719 242.94 175.273 243.05 174.773 243.05C174.346 243.05 173.959 242.963 173.613 242.79C173.273 242.61 172.993 242.35 172.773 242.01V244.94H172.063V237.74H172.743V238.78C172.956 238.433 173.236 238.167 173.583 237.98C173.936 237.793 174.333 237.7 174.773 237.7ZM174.723 242.42C175.089 242.42 175.423 242.337 175.723 242.17C176.023 241.997 176.256 241.753 176.423 241.44C176.596 241.127 176.683 240.77 176.683 240.37C176.683 239.97 176.596 239.617 176.423 239.31C176.256 238.997 176.023 238.753 175.723 238.58C175.423 238.407 175.089 238.32 174.723 238.32C174.349 238.32 174.013 238.407 173.713 238.58C173.419 238.753 173.186 238.997 173.013 239.31C172.846 239.617 172.763 239.97 172.763 240.37C172.763 240.77 172.846 241.127 173.013 241.44C173.186 241.753 173.419 241.997 173.713 242.17C174.013 242.337 174.349 242.42 174.723 242.42Z" fill="#AFAFAF"/>
<circle opacity="0.15" cx="164" cy="385" r="5" fill="#636569"/>
<circle cx="164" cy="385" r="1" fill="#AFAFAF"/>
<path d="M77.57 386.26C77.9433 386.347 78.23 386.497 78.43 386.71C78.6367 386.923 78.74 387.183 78.74 387.49C78.74 387.797 78.6333 388.07 78.42 388.31C78.2133 388.55 77.93 388.737 77.57 388.87C77.21 388.997 76.8133 389.06 76.38 389.06C76 389.06 75.6267 389.007 75.26 388.9C74.8933 388.787 74.5733 388.623 74.3 388.41L74.54 387.88C74.78 388.06 75.06 388.2 75.38 388.3C75.7 388.4 76.0233 388.45 76.35 388.45C76.8367 388.45 77.2333 388.36 77.54 388.18C77.8533 387.993 78.01 387.743 78.01 387.43C78.01 387.15 77.8833 386.933 77.63 386.78C77.3767 386.62 77.03 386.54 76.59 386.54H75.69V386.02H76.55C76.9433 386.02 77.26 385.947 77.5 385.8C77.74 385.647 77.86 385.443 77.86 385.19C77.86 384.91 77.7233 384.69 77.45 384.53C77.1833 384.37 76.8333 384.29 76.4 384.29C75.8333 384.29 75.2733 384.433 74.72 384.72L74.52 384.17C75.1467 383.843 75.7967 383.68 76.47 383.68C76.87 383.68 77.23 383.74 77.55 383.86C77.8767 383.973 78.13 384.137 78.31 384.35C78.4967 384.563 78.59 384.81 78.59 385.09C78.59 385.357 78.4967 385.593 78.31 385.8C78.13 386.007 77.8833 386.16 77.57 386.26ZM84.9518 386.59H80.5518C80.5918 387.137 80.8018 387.58 81.1818 387.92C81.5618 388.253 82.0418 388.42 82.6218 388.42C82.9485 388.42 83.2485 388.363 83.5218 388.25C83.7951 388.13 84.0318 387.957 84.2318 387.73L84.6318 388.19C84.3985 388.47 84.1051 388.683 83.7518 388.83C83.4051 388.977 83.0218 389.05 82.6018 389.05C82.0618 389.05 81.5818 388.937 81.1618 388.71C80.7485 388.477 80.4251 388.157 80.1918 387.75C79.9585 387.343 79.8418 386.883 79.8418 386.37C79.8418 385.857 79.9518 385.397 80.1718 384.99C80.3985 384.583 80.7051 384.267 81.0918 384.04C81.4851 383.813 81.9251 383.7 82.4118 383.7C82.8985 383.7 83.3351 383.813 83.7218 384.04C84.1085 384.267 84.4118 384.583 84.6318 384.99C84.8518 385.39 84.9618 385.85 84.9618 386.37L84.9518 386.59ZM82.4118 384.31C81.9051 384.31 81.4785 384.473 81.1318 384.8C80.7918 385.12 80.5985 385.54 80.5518 386.06H84.2818C84.2351 385.54 84.0385 385.12 83.6918 384.8C83.3518 384.473 82.9251 384.31 82.4118 384.31ZM90.726 383.74V389H90.016V384.37H87.496L87.426 385.67C87.3727 386.763 87.246 387.603 87.046 388.19C86.846 388.777 86.4893 389.07 85.976 389.07C85.836 389.07 85.666 389.043 85.466 388.99L85.516 388.38C85.636 388.407 85.7193 388.42 85.766 388.42C86.0393 388.42 86.246 388.293 86.386 388.04C86.526 387.787 86.6193 387.473 86.666 387.1C86.7127 386.727 86.7527 386.233 86.786 385.62L86.876 383.74H90.726ZM97.3444 386.59H92.9444C92.9844 387.137 93.1944 387.58 93.5744 387.92C93.9544 388.253 94.4344 388.42 95.0144 388.42C95.341 388.42 95.641 388.363 95.9144 388.25C96.1877 388.13 96.4244 387.957 96.6244 387.73L97.0244 388.19C96.791 388.47 96.4977 388.683 96.1444 388.83C95.7977 388.977 95.4144 389.05 94.9944 389.05C94.4544 389.05 93.9744 388.937 93.5544 388.71C93.141 388.477 92.8177 388.157 92.5844 387.75C92.351 387.343 92.2344 386.883 92.2344 386.37C92.2344 385.857 92.3444 385.397 92.5644 384.99C92.791 384.583 93.0977 384.267 93.4844 384.04C93.8777 383.813 94.3177 383.7 94.8044 383.7C95.291 383.7 95.7277 383.813 96.1144 384.04C96.501 384.267 96.8044 384.583 97.0244 384.99C97.2444 385.39 97.3544 385.85 97.3544 386.37L97.3444 386.59ZM94.8044 384.31C94.2977 384.31 93.871 384.473 93.5244 384.8C93.1844 385.12 92.991 385.54 92.9444 386.06H96.6744C96.6277 385.54 96.431 385.12 96.0844 384.8C95.7444 384.473 95.3177 384.31 94.8044 384.31ZM98.926 383.74H99.636V386.07H102.946V383.74H103.656V389H102.946V386.68H99.636V389H98.926V383.74ZM107.934 385.6C108.594 385.607 109.094 385.753 109.434 386.04C109.781 386.327 109.954 386.74 109.954 387.28C109.954 387.84 109.767 388.27 109.394 388.57C109.027 388.87 108.494 389.017 107.794 389.01L105.674 389V383.74H106.384V385.58L107.934 385.6ZM107.754 388.47C108.241 388.477 108.607 388.38 108.854 388.18C109.107 387.973 109.234 387.673 109.234 387.28C109.234 386.893 109.111 386.607 108.864 386.42C108.617 386.233 108.247 386.137 107.754 386.13L106.384 386.11V388.45L107.754 388.47ZM111.291 387.96C111.444 387.96 111.571 388.013 111.671 388.12C111.771 388.22 111.821 388.347 111.821 388.5C111.821 388.58 111.807 388.667 111.781 388.76C111.761 388.853 111.727 388.96 111.681 389.08L111.261 390.46H110.781L111.121 389.01C111.014 388.977 110.927 388.917 110.861 388.83C110.794 388.737 110.761 388.627 110.761 388.5C110.761 388.347 110.811 388.22 110.911 388.12C111.011 388.013 111.137 387.96 111.291 387.96ZM120.257 388.36V389H115.347V388.49L118.257 385.64C118.624 385.28 118.87 384.97 118.997 384.71C119.13 384.443 119.197 384.177 119.197 383.91C119.197 383.497 119.054 383.177 118.767 382.95C118.487 382.717 118.084 382.6 117.557 382.6C116.737 382.6 116.1 382.86 115.647 383.38L115.137 382.94C115.41 382.62 115.757 382.373 116.177 382.2C116.604 382.027 117.084 381.94 117.617 381.94C118.33 381.94 118.894 382.11 119.307 382.45C119.727 382.783 119.937 383.243 119.937 383.83C119.937 384.19 119.857 384.537 119.697 384.87C119.537 385.203 119.234 385.587 118.787 386.02L116.407 388.36H120.257ZM123.912 389.06C123.372 389.06 122.888 388.917 122.462 388.63C122.042 388.343 121.712 387.933 121.472 387.4C121.238 386.86 121.122 386.227 121.122 385.5C121.122 384.773 121.238 384.143 121.472 383.61C121.712 383.07 122.042 382.657 122.462 382.37C122.888 382.083 123.372 381.94 123.912 381.94C124.452 381.94 124.932 382.083 125.352 382.37C125.778 382.657 126.112 383.07 126.352 383.61C126.592 384.143 126.712 384.773 126.712 385.5C126.712 386.227 126.592 386.86 126.352 387.4C126.112 387.933 125.778 388.343 125.352 388.63C124.932 388.917 124.452 389.06 123.912 389.06ZM123.912 388.4C124.318 388.4 124.675 388.287 124.982 388.06C125.295 387.833 125.538 387.503 125.712 387.07C125.885 386.637 125.972 386.113 125.972 385.5C125.972 384.887 125.885 384.363 125.712 383.93C125.538 383.497 125.295 383.167 124.982 382.94C124.675 382.713 124.318 382.6 123.912 382.6C123.505 382.6 123.145 382.713 122.832 382.94C122.525 383.167 122.285 383.497 122.112 383.93C121.938 384.363 121.852 384.887 121.852 385.5C121.852 386.113 121.938 386.637 122.112 387.07C122.285 387.503 122.525 387.833 122.832 388.06C123.145 388.287 123.505 388.4 123.912 388.4ZM130.533 389.06C129.993 389.06 129.509 388.917 129.083 388.63C128.663 388.343 128.333 387.933 128.093 387.4C127.859 386.86 127.743 386.227 127.743 385.5C127.743 384.773 127.859 384.143 128.093 383.61C128.333 383.07 128.663 382.657 129.083 382.37C129.509 382.083 129.993 381.94 130.533 381.94C131.073 381.94 131.553 382.083 131.973 382.37C132.399 382.657 132.733 383.07 132.973 383.61C133.213 384.143 133.333 384.773 133.333 385.5C133.333 386.227 133.213 386.86 132.973 387.4C132.733 387.933 132.399 388.343 131.973 388.63C131.553 388.917 131.073 389.06 130.533 389.06ZM130.533 388.4C130.939 388.4 131.296 388.287 131.603 388.06C131.916 387.833 132.159 387.503 132.333 387.07C132.506 386.637 132.593 386.113 132.593 385.5C132.593 384.887 132.506 384.363 132.333 383.93C132.159 383.497 131.916 383.167 131.603 382.94C131.296 382.713 130.939 382.6 130.533 382.6C130.126 382.6 129.766 382.713 129.453 382.94C129.146 383.167 128.906 383.497 128.733 383.93C128.559 384.363 128.473 384.887 128.473 385.5C128.473 386.113 128.559 386.637 128.733 387.07C128.906 387.503 129.146 387.833 129.453 388.06C129.766 388.287 130.126 388.4 130.533 388.4ZM141.191 384.37H138.181V389H137.471V383.74H141.191V384.37ZM144.927 383.7C145.42 383.7 145.867 383.813 146.267 384.04C146.667 384.26 146.98 384.573 147.207 384.98C147.434 385.387 147.547 385.85 147.547 386.37C147.547 386.897 147.434 387.363 147.207 387.77C146.98 388.177 146.667 388.493 146.267 388.72C145.874 388.94 145.427 389.05 144.927 389.05C144.5 389.05 144.114 388.963 143.767 388.79C143.427 388.61 143.147 388.35 142.927 388.01V390.94H142.217V383.74H142.897V384.78C143.11 384.433 143.39 384.167 143.737 383.98C144.09 383.793 144.487 383.7 144.927 383.7ZM144.877 388.42C145.244 388.42 145.577 388.337 145.877 388.17C146.177 387.997 146.41 387.753 146.577 387.44C146.75 387.127 146.837 386.77 146.837 386.37C146.837 385.97 146.75 385.617 146.577 385.31C146.41 384.997 146.177 384.753 145.877 384.58C145.577 384.407 145.244 384.32 144.877 384.32C144.504 384.32 144.167 384.407 143.867 384.58C143.574 384.753 143.34 384.997 143.167 385.31C143 385.617 142.917 385.97 142.917 386.37C142.917 386.77 143 387.127 143.167 387.44C143.34 387.753 143.574 387.997 143.867 388.17C144.167 388.337 144.504 388.42 144.877 388.42Z" fill="#AFAFAF"/>
<g filter="url(#filter4_d)">
<rect x="20" y="370" width="45" height="30.9375" fill="url(#pattern2)"/>
</g>
<circle opacity="0.15" cx="202.5" cy="529.5" r="5.5" fill="#636569"/>
<circle cx="202.5" cy="529.5" r="1.1" fill="#AFAFAF"/>
<path d="M101.73 528.74V534H101.02V529.37H97.72V534H97.01V528.74H101.73ZM105.918 534.05C105.412 534.05 104.955 533.937 104.548 533.71C104.142 533.477 103.822 533.157 103.588 532.75C103.355 532.343 103.238 531.883 103.238 531.37C103.238 530.857 103.355 530.397 103.588 529.99C103.822 529.583 104.142 529.267 104.548 529.04C104.955 528.813 105.412 528.7 105.918 528.7C106.425 528.7 106.882 528.813 107.288 529.04C107.695 529.267 108.012 529.583 108.238 529.99C108.472 530.397 108.588 530.857 108.588 531.37C108.588 531.883 108.472 532.343 108.238 532.75C108.012 533.157 107.695 533.477 107.288 533.71C106.882 533.937 106.425 534.05 105.918 534.05ZM105.918 533.42C106.292 533.42 106.625 533.337 106.918 533.17C107.218 532.997 107.452 532.753 107.618 532.44C107.785 532.127 107.868 531.77 107.868 531.37C107.868 530.97 107.785 530.613 107.618 530.3C107.452 529.987 107.218 529.747 106.918 529.58C106.625 529.407 106.292 529.32 105.918 529.32C105.545 529.32 105.208 529.407 104.908 529.58C104.615 529.747 104.382 529.987 104.208 530.3C104.042 530.613 103.958 530.97 103.958 531.37C103.958 531.77 104.042 532.127 104.208 532.44C104.382 532.753 104.615 532.997 104.908 533.17C105.208 533.337 105.545 533.42 105.918 533.42ZM115.986 528.74V534H115.336V529.84L113.206 533.36H112.886L110.756 529.83V534H110.106V528.74H110.826L113.056 532.53L115.326 528.74H115.986ZM118.006 528.74H118.716V532.92L122.226 528.74H122.856V534H122.146V529.82L118.646 534H118.006V528.74ZM130.021 533.38V535.27H129.351V534H124.641V535.27H123.971V533.38H124.271C124.624 533.36 124.864 533.1 124.991 532.6C125.118 532.1 125.204 531.4 125.251 530.5L125.321 528.74H129.201V533.38H130.021ZM125.901 530.54C125.868 531.287 125.804 531.903 125.711 532.39C125.618 532.87 125.451 533.2 125.211 533.38H128.491V529.37H125.961L125.901 530.54ZM133.575 534.05C133.068 534.05 132.611 533.937 132.205 533.71C131.798 533.477 131.478 533.157 131.245 532.75C131.011 532.343 130.895 531.883 130.895 531.37C130.895 530.857 131.011 530.397 131.245 529.99C131.478 529.583 131.798 529.267 132.205 529.04C132.611 528.813 133.068 528.7 133.575 528.7C134.081 528.7 134.538 528.813 134.945 529.04C135.351 529.267 135.668 529.583 135.895 529.99C136.128 530.397 136.245 530.857 136.245 531.37C136.245 531.883 136.128 532.343 135.895 532.75C135.668 533.157 135.351 533.477 134.945 533.71C134.538 533.937 134.081 534.05 133.575 534.05ZM133.575 533.42C133.948 533.42 134.281 533.337 134.575 533.17C134.875 532.997 135.108 532.753 135.275 532.44C135.441 532.127 135.525 531.77 135.525 531.37C135.525 530.97 135.441 530.613 135.275 530.3C135.108 529.987 134.875 529.747 134.575 529.58C134.281 529.407 133.948 529.32 133.575 529.32C133.201 529.32 132.865 529.407 132.565 529.58C132.271 529.747 132.038 529.987 131.865 530.3C131.698 530.613 131.615 530.97 131.615 531.37C131.615 531.77 131.698 532.127 131.865 532.44C132.038 532.753 132.271 532.997 132.565 533.17C132.865 533.337 133.201 533.42 133.575 533.42ZM140.472 528.7C140.965 528.7 141.412 528.813 141.812 529.04C142.212 529.26 142.525 529.573 142.752 529.98C142.979 530.387 143.092 530.85 143.092 531.37C143.092 531.897 142.979 532.363 142.752 532.77C142.525 533.177 142.212 533.493 141.812 533.72C141.419 533.94 140.972 534.05 140.472 534.05C140.045 534.05 139.659 533.963 139.312 533.79C138.972 533.61 138.692 533.35 138.472 533.01V535.94H137.762V528.74H138.442V529.78C138.655 529.433 138.935 529.167 139.282 528.98C139.635 528.793 140.032 528.7 140.472 528.7ZM140.422 533.42C140.789 533.42 141.122 533.337 141.422 533.17C141.722 532.997 141.955 532.753 142.122 532.44C142.295 532.127 142.382 531.77 142.382 531.37C142.382 530.97 142.295 530.617 142.122 530.31C141.955 529.997 141.722 529.753 141.422 529.58C141.122 529.407 140.789 529.32 140.422 529.32C140.049 529.32 139.712 529.407 139.412 529.58C139.119 529.753 138.885 529.997 138.712 530.31C138.545 530.617 138.462 530.97 138.462 531.37C138.462 531.77 138.545 532.127 138.712 532.44C138.885 532.753 139.119 532.997 139.412 533.17C139.712 533.337 140.049 533.42 140.422 533.42ZM146.827 530.6C147.487 530.607 147.991 530.753 148.337 531.04C148.684 531.327 148.857 531.74 148.857 532.28C148.857 532.84 148.671 533.27 148.297 533.57C147.924 533.87 147.391 534.017 146.697 534.01L144.617 534V528.74H145.327V530.58L146.827 530.6ZM149.737 528.74H150.447V534H149.737V528.74ZM146.657 533.47C147.144 533.477 147.511 533.38 147.757 533.18C148.011 532.973 148.137 532.673 148.137 532.28C148.137 531.893 148.014 531.607 147.767 531.42C147.521 531.233 147.151 531.137 146.657 531.13L145.327 531.11V533.45L146.657 533.47ZM152.529 532.96C152.682 532.96 152.809 533.013 152.909 533.12C153.009 533.22 153.059 533.347 153.059 533.5C153.059 533.58 153.046 533.667 153.019 533.76C152.999 533.853 152.966 533.96 152.919 534.08L152.499 535.46H152.019L152.359 534.01C152.252 533.977 152.166 533.917 152.099 533.83C152.032 533.737 151.999 533.627 151.999 533.5C151.999 533.347 152.049 533.22 152.149 533.12C152.249 533.013 152.376 532.96 152.529 532.96ZM158.655 527V534H157.935V527.64H156.285V527H158.655ZM162.169 529.87C163.182 529.87 163.919 530.053 164.379 530.42C164.845 530.78 165.079 531.287 165.079 531.94C165.079 532.347 164.982 532.71 164.789 533.03C164.602 533.35 164.319 533.603 163.939 533.79C163.559 533.97 163.092 534.06 162.539 534.06C162.039 534.06 161.562 533.98 161.109 533.82C160.662 533.653 160.302 533.433 160.029 533.16L160.379 532.59C160.612 532.83 160.919 533.027 161.299 533.18C161.679 533.327 162.089 533.4 162.529 533.4C163.109 533.4 163.555 533.27 163.869 533.01C164.189 532.75 164.349 532.403 164.349 531.97C164.349 531.49 164.169 531.127 163.809 530.88C163.455 530.633 162.855 530.51 162.009 530.51H160.519L160.879 527H164.709V527.64H161.509L161.269 529.87H162.169ZM168.783 534.06C168.243 534.06 167.759 533.917 167.333 533.63C166.913 533.343 166.583 532.933 166.343 532.4C166.109 531.86 165.993 531.227 165.993 530.5C165.993 529.773 166.109 529.143 166.343 528.61C166.583 528.07 166.913 527.657 167.333 527.37C167.759 527.083 168.243 526.94 168.783 526.94C169.323 526.94 169.803 527.083 170.223 527.37C170.649 527.657 170.983 528.07 171.223 528.61C171.463 529.143 171.583 529.773 171.583 530.5C171.583 531.227 171.463 531.86 171.223 532.4C170.983 532.933 170.649 533.343 170.223 533.63C169.803 533.917 169.323 534.06 168.783 534.06ZM168.783 533.4C169.189 533.4 169.546 533.287 169.853 533.06C170.166 532.833 170.409 532.503 170.583 532.07C170.756 531.637 170.843 531.113 170.843 530.5C170.843 529.887 170.756 529.363 170.583 528.93C170.409 528.497 170.166 528.167 169.853 527.94C169.546 527.713 169.189 527.6 168.783 527.6C168.376 527.6 168.016 527.713 167.703 527.94C167.396 528.167 167.156 528.497 166.983 528.93C166.809 529.363 166.723 529.887 166.723 530.5C166.723 531.113 166.809 531.637 166.983 532.07C167.156 532.503 167.396 532.833 167.703 533.06C168.016 533.287 168.376 533.4 168.783 533.4ZM179.441 529.37H176.431V534H175.721V528.74H179.441V529.37ZM183.177 528.7C183.67 528.7 184.117 528.813 184.517 529.04C184.917 529.26 185.23 529.573 185.457 529.98C185.684 530.387 185.797 530.85 185.797 531.37C185.797 531.897 185.684 532.363 185.457 532.77C185.23 533.177 184.917 533.493 184.517 533.72C184.124 533.94 183.677 534.05 183.177 534.05C182.75 534.05 182.364 533.963 182.017 533.79C181.677 533.61 181.397 533.35 181.177 533.01V535.94H180.467V528.74H181.147V529.78C181.36 529.433 181.64 529.167 181.987 528.98C182.34 528.793 182.737 528.7 183.177 528.7ZM183.127 533.42C183.494 533.42 183.827 533.337 184.127 533.17C184.427 532.997 184.66 532.753 184.827 532.44C185 532.127 185.087 531.77 185.087 531.37C185.087 530.97 185 530.617 184.827 530.31C184.66 529.997 184.427 529.753 184.127 529.58C183.827 529.407 183.494 529.32 183.127 529.32C182.754 529.32 182.417 529.407 182.117 529.58C181.824 529.753 181.59 529.997 181.417 530.31C181.25 530.617 181.167 530.97 181.167 531.37C181.167 531.77 181.25 532.127 181.417 532.44C181.59 532.753 181.824 532.997 182.117 533.17C182.417 533.337 182.754 533.42 183.127 533.42Z" fill="#AFAFAF"/>
<g filter="url(#filter5_d)">
<rect x="44" y="512" width="43" height="36.2105" fill="url(#pattern3)"/>
</g>
<defs>
<filter id="filter0_ddii" x="43.5" y="28.6591" width="329.714" height="691.682" filterUnits="userSpaceOnUse" color-interpolation-filters="sRGB">
<feFlood flood-opacity="0" result="BackgroundImageFix"/>
<feColorMatrix in="SourceAlpha" type="matrix" values="0 0 0 0 0 0 0 0 0 0 0 0 0 0 0 0 0 0 127 0"/>
<feOffset dx="20" dy="20"/>
<feGaussianBlur stdDeviation="50"/>
<feColorMatrix type="matrix" values="0 0 0 0 0 0 0 0 0 0 0 0 0 0 0 0 0 0 0.08 0"/>
<feBlend mode="normal" in2="BackgroundImageFix" result="effect1_dropShadow"/>
<feColorMatrix in="SourceAlpha" type="matrix" values="0 0 0 0 0 0 0 0 0 0 0 0 0 0 0 0 0 0 127 0"/>
<feOffset dx="-20" dy="-20"/>
<feGaussianBlur stdDeviation="50"/>
<feColorMatrix type="matrix" values="0 0 0 0 1 0 0 0 0 1 0 0 0 0 1 0 0 0 1 0"/>
<feBlend mode="normal" in2="effect1_dropShadow" result="effect2_dropShadow"/>
<feBlend mode="normal" in="SourceGraphic" in2="effect2_dropShadow" result="shape"/>
<feColorMatrix in="SourceAlpha" type="matrix" values="0 0 0 0 0 0 0 0 0 0 0 0 0 0 0 0 0 0 127 0" result="hardAlpha"/>
<feOffset dx="20" dy="20"/>
<feGaussianBlur stdDeviation="30"/>
<feComposite in2="hardAlpha" operator="arithmetic" k2="-1" k3="1"/>
<feColorMatrix type="matrix" values="0 0 0 0 0 0 0 0 0 0 0 0 0 0 0 0 0 0 0.03 0"/>
<feBlend mode="normal" in2="shape" result="effect3_innerShadow"/>
<feColorMatrix in="SourceAlpha" type="matrix" values="0 0 0 0 0 0 0 0 0 0 0 0 0 0 0 0 0 0 127 0" result="hardAlpha"/>
<feOffset dx="-20" dy="-20"/>
<feGaussianBlur stdDeviation="30"/>
<feComposite in2="hardAlpha" operator="arithmetic" k2="-1" k3="1"/>
<feColorMatrix type="matrix" values="0 0 0 0 1 0 0 0 0 1 0 0 0 0 1 0 0 0 0.5 0"/>
<feBlend mode="normal" in2="effect3_innerShadow" result="effect4_innerShadow"/>
</filter>
<filter id="filter1_dii" x="99.4" y="-6.59999" width="741" height="739.148" filterUnits="userSpaceOnUse" color-interpolation-filters="sRGB">
<feFlood flood-opacity="0" result="BackgroundImageFix"/>
<feColorMatrix in="SourceAlpha" type="matrix" values="0 0 0 0 0 0 0 0 0 0 0 0 0 0 0 0 0 0 127 0"/>
<feOffset dx="-21.6" dy="-21.6"/>
<feGaussianBlur stdDeviation="54"/>
<feColorMatrix type="matrix" values="0 0 0 0 1 0 0 0 0 1 0 0 0 0 1 0 0 0 1 0"/>
<feBlend mode="normal" in2="BackgroundImageFix" result="effect1_dropShadow"/>
<feBlend mode="normal" in="SourceGraphic" in2="effect1_dropShadow" result="shape"/>
<feColorMatrix in="SourceAlpha" type="matrix" values="0 0 0 0 0 0 0 0 0 0 0 0 0 0 0 0 0 0 127 0" result="hardAlpha"/>
<feOffset dx="21.6" dy="21.6"/>
<feGaussianBlur stdDeviation="32.4"/>
<feComposite in2="hardAlpha" operator="arithmetic" k2="-1" k3="1"/>
<feColorMatrix type="matrix" values="0 0 0 0 0 0 0 0 0 0 0 0 0 0 0 0 0 0 0.03 0"/>
<feBlend mode="normal" in2="shape" result="effect2_innerShadow"/>
<feColorMatrix in="SourceAlpha" type="matrix" values="0 0 0 0 0 0 0 0 0 0 0 0 0 0 0 0 0 0 127 0" result="hardAlpha"/>
<feOffset dx="-21.6" dy="-21.6"/>
<feGaussianBlur stdDeviation="32.4"/>
<feComposite in2="hardAlpha" operator="arithmetic" k2="-1" k3="1"/>
<feColorMatrix type="matrix" values="0 0 0 0 1 0 0 0 0 1 0 0 0 0 1 0 0 0 0.5 0"/>
<feBlend mode="normal" in2="effect2_innerShadow" result="effect3_innerShadow"/>
</filter>
<filter id="filter2_ii" x="273.2" y="168.002" width="437.6" height="433.143" filterUnits="userSpaceOnUse" color-interpolation-filters="sRGB">
<feFlood flood-opacity="0" result="BackgroundImageFix"/>
<feBlend mode="normal" in="SourceGraphic" in2="BackgroundImageFix" result="shape"/>
<feColorMatrix in="SourceAlpha" type="matrix" values="0 0 0 0 0 0 0 0 0 0 0 0 0 0 0 0 0 0 127 0" result="hardAlpha"/>
<feOffset dx="10.8" dy="10.8"/>
<feGaussianBlur stdDeviation="21.6"/>
<feComposite in2="hardAlpha" operator="arithmetic" k2="-1" k3="1"/>
<feColorMatrix type="matrix" values="0 0 0 0 0 0 0 0 0 0 0 0 0 0 0 0 0 0 0.08 0"/>
<feBlend mode="normal" in2="shape" result="effect1_innerShadow"/>
<feColorMatrix in="SourceAlpha" type="matrix" values="0 0 0 0 0 0 0 0 0 0 0 0 0 0 0 0 0 0 127 0" result="hardAlpha"/>
<feOffset dx="-10.8" dy="-10.8"/>
<feGaussianBlur stdDeviation="21.6"/>
<feComposite in2="hardAlpha" operator="arithmetic" k2="-1" k3="1"/>
<feColorMatrix type="matrix" values="0 0 0 0 1 0 0 0 0 1 0 0 0 0 1 0 0 0 1 0"/>
<feBlend mode="normal" in2="effect1_innerShadow" result="effect2_innerShadow"/>
</filter>
<pattern id="pattern0" patternContentUnits="objectBoundingBox" width="1" height="1">
<use xlink:href="#image0" transform="translate(0 -0.00176991) scale(0.00120192)"/>
</pattern>
<filter id="filter3_d" x="41" y="210" width="82" height="78.0377" filterUnits="userSpaceOnUse" color-interpolation-filters="sRGB">
<feFlood flood-opacity="0" result="BackgroundImageFix"/>
<feColorMatrix in="SourceAlpha" type="matrix" values="0 0 0 0 0 0 0 0 0 0 0 0 0 0 0 0 0 0 127 0"/>
<feOffset dy="10"/>
<feGaussianBlur stdDeviation="10"/>
<feColorMatrix type="matrix" values="0 0 0 0 0 0 0 0 0 0 0 0 0 0 0 0 0 0 0.1 0"/>
<feBlend mode="normal" in2="BackgroundImageFix" result="effect1_dropShadow"/>
<feBlend mode="normal" in="SourceGraphic" in2="effect1_dropShadow" result="shape"/>
</filter>
<pattern id="pattern1" patternContentUnits="objectBoundingBox" width="1" height="1">
<use xlink:href="#image1" transform="scale(0.00377358 0.00416667)"/>
</pattern>
<filter id="filter4_d" x="0" y="360" width="85" height="70.9375" filterUnits="userSpaceOnUse" color-interpolation-filters="sRGB">
<feFlood flood-opacity="0" result="BackgroundImageFix"/>
<feColorMatrix in="SourceAlpha" type="matrix" values="0 0 0 0 0 0 0 0 0 0 0 0 0 0 0 0 0 0 127 0"/>
<feOffset dy="10"/>
<feGaussianBlur stdDeviation="10"/>
<feColorMatrix type="matrix" values="0 0 0 0 0 0 0 0 0 0 0 0 0 0 0 0 0 0 0.1 0"/>
<feBlend mode="normal" in2="BackgroundImageFix" result="effect1_dropShadow"/>
<feBlend mode="normal" in="SourceGraphic" in2="effect1_dropShadow" result="shape"/>
</filter>
<pattern id="pattern2" patternContentUnits="objectBoundingBox" width="1" height="1">
<use xlink:href="#image2" transform="scale(0.003125 0.00454545)"/>
</pattern>
<filter id="filter5_d" x="24" y="502" width="83" height="76.2105" filterUnits="userSpaceOnUse" color-interpolation-filters="sRGB">
<feFlood flood-opacity="0" result="BackgroundImageFix"/>
<feColorMatrix in="SourceAlpha" type="matrix" values="0 0 0 0 0 0 0 0 0 0 0 0 0 0 0 0 0 0 127 0"/>
<feOffset dy="10"/>
<feGaussianBlur stdDeviation="10"/>
<feColorMatrix type="matrix" values="0 0 0 0 0 0 0 0 0 0 0 0 0 0 0 0 0 0 0.1 0"/>
<feBlend mode="normal" in2="BackgroundImageFix" result="effect1_dropShadow"/>
<feBlend mode="normal" in="SourceGraphic" in2="effect1_dropShadow" result="shape"/>
</filter>
<pattern id="pattern3" patternContentUnits="objectBoundingBox" width="1" height="1">
<use xlink:href="#image3" transform="scale(0.00350877 0.00416667)"/>
</pattern>
</defs>
</svg>
